nColumns=28
nRows=86
DataType=double
version=3
OpenSimVersion=4.1
endheader
time	ground_force_1_vx	ground_force_1_vy	ground_force_1_vz	ground_force_1_px	ground_force_1_py	ground_force_1_pz	ground_force_1_mx	ground_force_1_my	ground_force_1_mz	ground_force_2_vx	ground_force_2_vy	ground_force_2_vz	ground_force_2_px	ground_force_2_py	ground_force_2_pz	ground_force_2_mx	ground_force_2_my	ground_force_2_mz	ground_force_3_vx	ground_force_3_vy	ground_force_3_vz	ground_force_3_px	ground_force_3_py	ground_force_3_pz	ground_force_3_mx	ground_force_3_my	ground_force_3_mz
1.5	-66.198	89.9264	6.19372	-0.092952	0.006	-0.416356	0	0.231272	0	-172.236	216.723	14.6292	-0.112576	0.006	-0.753749	0	-0.639847	0	0	0	0	0	0	0	0	0	0
1.51	-389.762	570.174	1.5649	-0.115757	0.006	-0.424164	0	3.44999	0	-423.782	639.459	42.4562	-0.128713	0.006	-0.749394	0	-2.0409	0	0	0	0	0	0	0	0	0	0
1.52	-536.839	957.857	-42.5408	-0.12677	0.006	-0.424113	0	7.2935	0	-307.478	796.684	75.0761	-0.145294	0.006	-0.748225	0	-4.27472	0	0	0	0	0	0	0	0	0	0
1.53	-350.359	1004.34	-102.76	-0.138087	0.006	-0.419758	0	10.4655	0	-172.399	934.036	97.3777	-0.160075	0.006	-0.748154	0	-6.01981	0	0	0	0	0	0	0	0	0	0
1.54	-353.248	1131.34	-146.709	-0.147611	0.006	-0.416579	0	10.3905	0	-241.115	1091.61	125.774	-0.165382	0.006	-0.748307	0	-4.66563	0	0	0	0	0	0	0	0	0	0
1.55	-355.221	1430.5	-162.652	-0.182443	0.006	-0.421235	0	4.2122	0	-303.422	1125.64	130.5	-0.169869	0.006	-0.746362	0	-0.119163	0	0	0	0	0	0	0	0	0	0
1.56	-125.548	2021.98	-114.26	-0.232563	0.006	-0.433093	0	-4.65923	0	-264.98	1127.91	101.817	-0.181702	0.006	-0.741799	0	5.17336	0	0	0	0	0	0	0	0	0	0
1.57	28.968	1984.94	-44.8008	-0.246525	0.006	-0.439311	0	-9.97978	0	-205.777	1218.2	82.8957	-0.197337	0.006	-0.737018	0	7.87943	0	0	0	0	0	0	0	0	0	0
1.58	-246.287	1422.84	-76.5687	-0.219502	0.006	-0.437252	0	-8.03467	0	-170.97	1246.17	93.837	-0.204208	0.006	-0.735142	0	6.05875	0	0	0	0	0	0	0	0	0	0
1.59	-419.415	1027.65	-102.975	-0.181009	0.006	-0.433085	0	-2.38383	0	-191.674	1111.77	113.582	-0.197813	0.006	-0.735946	0	2.57587	0	0	0	0	0	0	0	0	0	0
1.6	-346.025	949.137	-97.2025	-0.178326	0.006	-0.43419	0	0.289954	0	-226.158	940.303	112.921	-0.186225	0.006	-0.736288	0	0.861417	0	0	0	0	0	0	0	0	0	0
1.61	-248.787	1007.26	-86.485	-0.193498	0.006	-0.438044	0	-0.046489	0	-222.865	840.729	90.6501	-0.182674	0.006	-0.733641	0	1.8012	0	0	0	0	0	0	0	0	0	0
1.62	-216.622	1021.13	-69.5036	-0.201022	0.006	-0.44169	0	-1.12179	0	-179.543	826.575	67.999	-0.192163	0.006	-0.728981	0	3.21302	0	0	0	0	0	0	0	0	0	0
1.63	-186.916	983.712	-54.6013	-0.205296	0.006	-0.444649	0	-1.41224	0	-115.35	846.855	53.6949	-0.206992	0.006	-0.724422	0	3.63234	0	0	0	0	0	0	0	0	0	0
1.64	-141.576	946.821	-51.3815	-0.210961	0.006	-0.446399	0	-0.951877	0	-71.0433	829.123	48.6052	-0.216127	0.006	-0.72165	0	3.26683	0	0	0	0	0	0	0	0	0	0
1.65	-112.061	893.939	-48.1089	-0.213558	0.006	-0.447265	0	-0.521675	0	-66.8544	760.448	51.0827	-0.216512	0.006	-0.720846	0	2.61571	0	0	0	0	0	0	0	0	0	0
1.66	-111.758	822.88	-40.2811	-0.210763	0.006	-0.447612	0	-0.306158	0	-78.6216	687.601	51.1862	-0.212896	0.006	-0.720778	0	2.162	0	0	0	0	0	0	0	0	0	0
1.67	-114.945	765	-34.6603	-0.206315	0.006	-0.447477	0	-0.287692	0	-80.3921	637.008	46.2599	-0.210317	0.006	-0.720784	0	1.95904	0	0	0	0	0	0	0	0	0	0
1.68	-104.91	737.301	-34.8456	-0.204379	0.006	-0.446916	0	-0.214675	0	-73.1767	595.355	41.2029	-0.208536	0.006	-0.721108	0	1.79038	0	0	0	0	0	0	0	0	0	0
1.69	-88.1243	721.139	-40.2244	-0.204406	0.006	-0.445932	0	0.078123	0	-67.0492	555.852	38.3073	-0.206288	0.006	-0.721896	0	1.61004	0	0	0	0	0	0	0	0	0	0
1.7	-75.8027	693.996	-46.3783	-0.204506	0.006	-0.444642	0	0.367581	0	-64.6853	520.942	37.3332	-0.204433	0.006	-0.722972	0	1.48422	0	0	0	0	0	0	0	0	0	0
1.71	-69.2526	656.825	-49.0569	-0.20535	0.006	-0.443573	0	0.33853	0	-61.0045	487.754	36.1187	-0.204935	0.006	-0.723499	0	1.45733	0	0	0	0	0	0	0	0	0	0
1.72	-61.0661	624.514	-47.5563	-0.208645	0.006	-0.44295	0	-0.046148	0	-53.5914	457.655	34.2477	-0.208321	0.006	-0.723492	0	1.54795	0	0	0	0	0	0	0	0	0	0
1.73	-48.2254	600.559	-44.7423	-0.214104	0.006	-0.442551	0	-0.398567	0	-44.0718	429.129	32.3803	-0.213425	0.006	-0.723035	0	1.76107	0	0	0	0	0	0	0	0	0	0
1.74	-34.6487	580.866	-42.8514	-0.219864	0.006	-0.442077	0	-0.396881	0	-34.0611	398.582	30.0966	-0.218955	0.006	-0.722386	0	2.03411	0	0	0	0	0	0	0	0	0	0
1.75	-24.2267	557.421	-42.3003	-0.223804	0.006	-0.440993	0	-0.130574	0	-26.0127	366.721	28.1225	-0.223626	0.006	-0.72188	0	2.24967	0	0	0	0	0	0	0	0	0	0
1.76	-18.5236	525.962	-41.7409	-0.22518	0.006	-0.439497	0	0.156118	0	-21.8212	334.899	27.0168	-0.226177	0.006	-0.721872	0	2.3352	0	0	0	0	0	0	0	0	0	0
1.77	-15.8914	490.877	-39.6191	-0.224987	0.006	-0.438229	0	0.323561	0	-20.5145	302.93	25.7815	-0.226485	0.006	-0.722346	0	2.3692	0	0	0	0	0	0	0	0	0	0
1.78	-13.2983	458.655	-36.5879	-0.224561	0.006	-0.437047	0	0.393805	0	-20.2654	274.87	23.8725	-0.225576	0.006	-0.722578	0	2.38697	0	0	0	0	0	0	0	0	0	0
1.79	-9.39762	431.344	-33.2927	-0.224087	0.006	-0.436269	0	0.40945	0	-19.3823	254.82	21.4798	-0.224227	0.006	-0.722652	0	2.37707	0	0	0	0	0	0	0	0	0	0
1.8	-5.08096	407.085	-30.0746	-0.222987	0.006	-0.43571	0	0.432529	0	-17.3821	239.475	18.5595	-0.222631	0.006	-0.722946	0	2.38643	0	0	0	0	0	0	0	0	0	0
1.81	-0.878443	383.068	-27.3679	-0.220655	0.006	-0.435101	0	0.541048	0	-15.4739	222.493	15.1597	-0.221965	0.006	-0.722997	0	2.38248	0	0	0	0	0	0	0	0	0	0
1.82	3.41773	359.446	-24.9802	-0.217077	0.006	-0.43472	0	0.751878	0	-12.1938	206.972	11.6179	-0.223395	0.006	-0.722383	0	2.34735	0	0	0	0	0	0	0	0	0	0
1.83	7.95407	337.317	-22.856	-0.213351	0.006	-0.434807	0	0.902625	0	-6.48744	197.395	8.39726	-0.226736	0.006	-0.721676	0	2.22445	0	0	0	0	0	0	0	0	0	0
1.84	12.2728	318.688	-20.8878	-0.211489	0.006	-0.434818	0	0.949923	0	-0.487905	192.393	6.87842	-0.230189	0.006	-0.721488	0	1.98863	0	0	0	0	0	0	0	0	0	0
1.85	15.8491	305.156	-18.5979	-0.21291	0.006	-0.435056	0	0.876054	0	3.17754	192.162	7.51194	-0.233034	0.006	-0.721861	0	1.74357	0	0	0	0	0	0	0	0	0	0
1.86	20.4566	296.442	-15.8585	-0.217611	0.006	-0.435895	0	0.673153	0	3.88885	195.877	9.50329	-0.235859	0.006	-0.721892	0	1.63513	0	0	0	0	0	0	0	0	0	0
1.87	26.9209	293.191	-13.2537	-0.224767	0.006	-0.437211	0	0.437555	0	4.49162	201.85	11.0759	-0.241097	0.006	-0.721287	0	1.76491	0	0	0	0	0	0	0	0	0	0
1.88	33.3526	294.987	-11.2987	-0.235119	0.006	-0.438835	0	0.162163	0	7.30936	213.674	11.5761	-0.248998	0.006	-0.719655	0	2.06212	0	0	0	0	0	0	0	0	0	0
1.89	41.5188	309.752	-10.1918	-0.248492	0.006	-0.440793	0	-0.227052	0	12.1421	231.794	11.6094	-0.258467	0.006	-0.717482	0	2.41073	0	0	0	0	0	0	0	0	0	0
1.9	53.1689	343.367	-9.70464	-0.261022	0.006	-0.442803	0	-0.69115	0	18.4481	254.546	11.0918	-0.266884	0.006	-0.715136	0	2.61783	0	0	0	0	0	0	0	0	0	0
1.91	64.6554	385.187	-8.8249	-0.270105	0.006	-0.444611	0	-1.11441	0	24.848	281.262	10.2169	-0.272531	0.006	-0.713045	0	2.73136	0	0	0	0	0	0	0	0	0	0
1.92	74.3227	429.835	-7.74598	-0.275994	0.006	-0.445997	0	-1.44952	0	31.1688	310.518	8.10318	-0.275843	0.006	-0.711166	0	2.90927	0	0	0	0	0	0	0	0	0	0
1.93	82.0562	478.325	-7.50409	-0.279727	0.006	-0.447128	0	-1.67625	0	36.8941	342.048	4.14945	-0.278335	0.006	-0.709316	0	3.27623	0	0	0	0	0	0	0	0	0	0
1.94	86.0901	527.159	-9.66379	-0.282321	0.006	-0.448075	0	-1.92037	0	40.5931	374.219	-0.175519	-0.280649	0.006	-0.7074	0	3.91965	0	0	0	0	0	0	0	0	0	0
1.95	88.1502	579.017	-13.1005	-0.283842	0.006	-0.448893	0	-2.2674	0	43.188	404.689	-4.56794	-0.282078	0.006	-0.705522	0	4.7165	0	0	0	0	0	0	0	0	0	0
1.96	89.1284	635.076	-15.3713	-0.284009	0.006	-0.449676	0	-2.72083	0	44.306	434.321	-8.67557	-0.281926	0.006	-0.704013	0	5.54544	0	0	0	0	0	0	0	0	0	0
1.97	87.5109	689.267	-15.6255	-0.28296	0.006	-0.450412	0	-3.2173	0	43.0991	469.318	-10.0175	-0.280473	0.006	-0.703309	0	6.39142	0	0	0	0	0	0	0	0	0	0
1.98	84.1913	735.611	-14.4628	-0.280975	0.006	-0.451155	0	-3.71428	0	41.9962	514.906	-8.10141	-0.278467	0.006	-0.703281	0	7.11768	0	0	0	0	0	0	0	0	0	0
1.99	78.5464	774.212	-13.2843	-0.277741	0.006	-0.451659	0	-4.21533	0	41.4472	565.625	-4.0797	-0.275507	0.006	-0.704023	0	7.57296	0	0	0	0	0	0	0	0	0	0
2	67.42	804.337	-13.3201	-0.272923	0.006	-0.451831	0	-4.58021	0	39.065	614.763	1.91638	-0.270663	0.006	-0.705463	0	7.777	0	0	0	0	0	0	0	0	0	0
2.01	54.4039	829.085	-14.3125	-0.266383	0.006	-0.451797	0	-4.79243	0	32.7774	660.669	10.2117	-0.262582	0.006	-0.707904	0	7.74044	0	0	0	0	0	0	0	0	0	0
2.02	39.294	855.542	-15.8062	-0.258003	0.006	-0.451518	0	-4.93755	0	19.568	703.343	20.9526	-0.251043	0.006	-0.711199	0	7.62477	0	0	0	0	0	0	0	0	0	0
2.03	20.6094	881.51	-16.8538	-0.249033	0.006	-0.451239	0	-5.09645	0	-0.544421	741.242	30.6945	-0.238283	0.006	-0.714424	0	7.56057	0	0	0	0	0	0	0	0	0	0
2.04	5.62517	904.965	-15.9688	-0.241489	0.006	-0.451292	0	-5.36084	0	-17.98	774.327	36.7003	-0.227499	0.006	-0.717059	0	7.65363	0	0	0	0	0	0	0	0	0	0
2.05	-2.85844	925.248	-15.8901	-0.236466	0.006	-0.451389	0	-5.47957	0	-27.0476	801.79	41.3144	-0.220103	0.006	-0.719109	0	7.59582	0	0	0	0	0	0	0	0	0	0
2.06	-5.91213	943.548	-19.0523	-0.233487	0.006	-0.451054	0	-5.10633	0	-27.9012	822.035	46.9065	-0.215504	0.006	-0.720763	0	7.18714	0	0	0	0	0	0	0	0	0	0
2.07	-6.50302	959.996	-25.3763	-0.231013	0.006	-0.450195	0	-4.24556	0	-24.9462	835.732	53.036	-0.212331	0.006	-0.722286	0	6.6129	0	0	0	0	0	0	0	0	0	0
2.08	-9.26754	975.608	-33.5994	-0.227176	0.006	-0.448835	0	-3.29134	0	-25.0457	845.96	58.6744	-0.209383	0.006	-0.723611	0	6.14695	0	0	0	0	0	0	0	0	0	0
2.09	-17.6919	988.159	-42.9841	-0.221265	0.006	-0.447088	0	-2.43025	0	-29.0183	857.974	64.5475	-0.206331	0.006	-0.724732	0	5.81602	0	0	0	0	0	0	0	0	0	0
2.1	-26.1849	997.401	-52.5895	-0.213622	0.006	-0.445113	0	-1.81486	0	-31.1423	870.988	72.1372	-0.202869	0.006	-0.726166	0	5.48949	0	0	0	0	0	0	0	0	0	0
2.11	-35.0519	1006.03	-62.2607	-0.204172	0.006	-0.443142	0	-1.53441	0	-33.6282	883.181	81.8683	-0.197751	0.006	-0.728137	0	5.18516	0	0	0	0	0	0	0	0	0	0
2.12	-48.3092	1012.66	-71.0668	-0.193111	0.006	-0.441217	0	-1.53067	0	-42.4808	893.839	90.9573	-0.190378	0.006	-0.730443	0	4.99902	0	0	0	0	0	0	0	0	0	0
2.13	-64.2156	1016.64	-78.7819	-0.181436	0.006	-0.439378	0	-1.61133	0	-55.1875	902.889	96.6554	-0.18192	0.006	-0.732716	0	4.86904	0	0	0	0	0	0	0	0	0	0
2.14	-80.139	1019.68	-86.0845	-0.170404	0.006	-0.437703	0	-1.53279	0	-67.6745	912.712	102.114	-0.173844	0.006	-0.734797	0	4.55132	0	0	0	0	0	0	0	0	0	0
2.15	-94.5988	1022.34	-92.5026	-0.16063	0.006	-0.43631	0	-1.24937	0	-79.0289	922.364	108.496	-0.166802	0.006	-0.736686	0	4.05274	0	0	0	0	0	0	0	0	0	0
2.16	-107.591	1024.52	-96.4137	-0.152294	0.006	-0.435281	0	-0.967893	0	-89.9162	929.724	112.678	-0.160896	0.006	-0.738179	0	3.70484	0	0	0	0	0	0	0	0	0	0
2.17	-118.833	1025.96	-96.3639	-0.145432	0.006	-0.434581	0	-0.85833	0	-102.658	932.304	113.486	-0.155527	0.006	-0.739356	0	3.64918	0	0	0	0	0	0	0	0	0	0
2.18	-127.617	1023	-92.0517	-0.139836	0.006	-0.434281	0	-0.78488	0	-115.485	927.21	109.864	-0.150436	0.006	-0.740258	0	3.81207	0	0	0	0	0	0	0	0	0	0
2.19	-134.835	1005.85	-83.8155	-0.134647	0.006	-0.434326	0	-0.621184	0	-124.189	909.005	100.581	-0.145854	0.006	-0.740895	0	4.05157	0	0	0	0	0	0	0	0	0	0
2.2	-138.327	963.306	-70.2494	-0.129374	0.006	-0.434687	0	-0.514875	0	-125.378	866.435	85.4594	-0.141318	0.006	-0.741211	0	4.21255	0	0	0	0	0	0	0	0	0	0
2.21	-132.598	882.081	-50.0182	-0.123808	0.006	-0.435241	0	-0.637977	0	-116.326	787.555	65.059	-0.136051	0.006	-0.741304	0	4.17469	0	0	0	0	0	0	0	0	0	0
2.22	-110.931	750.512	-25.0941	-0.11754	0.006	-0.435765	0	-0.967111	0	-93.4293	667.521	40.6556	-0.129633	0.006	-0.741402	0	3.97336	0	0	0	0	0	0	0	0	0	0
2.23	-69.3961	570.761	0.954479	-0.110871	0.006	-0.435744	0	-1.66173	0	-53.8659	510.065	13.4601	-0.122791	0.006	-0.741658	0	3.95926	0	0	0	0	0	0	0	0	0	0
2.24	-12.176	354.88	23.5972	-0.105045	0.006	-0.435261	0	-2.42945	0	-0.488239	316.959	-12.176	-0.116084	0.006	-0.741844	0	3.74943	0	0	0	0	0	0	0	0	0	0
2.25	32.3656	141.246	29.03	-0.099065	0.006	-0.433775	0	-1.87736	0	35.2983	124.222	-22.5857	-0.104396	0.006	-0.739223	0	2.64176	0	0	0	0	0	0	0	0	0	0
2.26	22.2796	21.8365	13.487	-0.08611	0.006	-0.432338	0	-0.568562	0	0	0	0	0	0	0	0	0	0	0	0	0	0	0	0	0	0	0
2.27	0	0	0	0	0	0	0	0	0	0	0	0	0	0	0	0	0	0	0	0	0	0	0	0	0	0	0
2.28	0	0	0	0	0	0	0	0	0	0	0	0	0	0	0	0	0	0	0	0	0	0	0	0	0	0	0
2.29	0	0	0	0	0	0	0	0	0	0	0	0	0	0	0	0	0	0	0	0	0	0	0	0	0	0	0
2.3	0	0	0	0	0	0	0	0	0	0	0	0	0	0	0	0	0	0	0	0	0	0	0	0	0	0	0
2.31	0	0	0	0	0	0	0	0	0	0	0	0	0	0	0	0	0	0	0	0	0	0	0	0	0	0	0
2.32	0	0	0	0	0	0	0	0	0	0	0	0	0	0	0	0	0	0	0	0	0	0	0	0	0	0	0
2.33	0	0	0	0	0	0	0	0	0	0	0	0	0	0	0	0	0	0	0	0	0	0	0	0	0	0	0
2.34	0	0	0	0	0	0	0	0	0	0	0	0	0	0	0	0	0	0	0	0	0	0	0	0	0	0	0
2.35	0	0	0	0	0	0	0	0	0	0	0	0	0	0	0	0	0	0	0	0	0	0	0	0	0	0	0
